<?xml version="1.0" encoding="utf-8"?>
<!-- Generator: Adobe Illustrator 17.0.0, SVG Export Plug-In . SVG Version: 6.00 Build 0)  -->
<!DOCTYPE svg PUBLIC "-//W3C//DTD SVG 1.1//EN" "http://www.w3.org/Graphics/SVG/1.1/DTD/svg11.dtd">
<svg version="1.1" id="Capa_1" xmlns="http://www.w3.org/2000/svg" xmlns:xlink="http://www.w3.org/1999/xlink" x="0px" y="0px"
	 width="425.2px" height="425.2px" viewBox="0 0 425.2 425.2" style="enable-background:new 0 0 425.2 425.2;" xml:space="preserve"
	>
<circle style="opacity:0.4;fill:#FFFFFF;" cx="212.6" cy="212.6" r="156.77"/>
<g>
	<g>
		<path style="fill:#7AD0E2;" d="M324.88,138.1c0.01,0,0.02,0,0.03,0c3.78-0.03,7.73-2.04,11.11-3.54
			c22.04-11.02,15.43-48.48-11.02-38.02c-26.44-10.47-33.06,27-11.02,38.02C317.26,136.2,321.13,138.12,324.88,138.1z"/>
		<g>
			<path style="fill:#182B35;" d="M324.88,138.87c5.1,0,11-2.88,15.07-5.82c3.12-2.25,5.59-5.29,7.35-8.69
				c3.16-6.15,3.79-14,1.05-20.42c-2.72-6.38-8.48-10.19-15.44-9.98c-1.99,0.06-3.96,0.49-5.86,1.05c-1.41,0.42-2.1,0.67-3.54,0.18
				c-1.22-0.41-2.47-0.71-3.74-0.93c-3.48-0.62-7.02-0.29-10.25,1.15c-8.16,3.63-10.51,13.8-9.18,21.84
				c0.78,4.74,3.03,9.17,6.24,12.73C310.93,134.8,318.41,138.66,324.88,138.87c1,0.03,0.99-1.51,0-1.54
				c-5.85-0.2-12.36-3.67-16.53-7.75c-2.94-2.88-4.93-6.6-6.03-10.54c-1.92-6.92-0.7-15.32,4.84-20.29
				c2.85-2.55,6.68-3.43,10.41-3.22c2.28,0.13,4.51,0.76,6.65,1.54c1.74,0.63,4.55-1,6.41-1.33c7.97-1.42,14.66,3.19,16.99,10.75
				c1.82,5.91,0.81,12.54-2.09,17.93c-1.63,3.02-3.99,5.61-6.77,7.61c-3.73,2.69-9.25,5.31-13.88,5.31
				C323.88,137.33,323.88,138.87,324.88,138.87z"/>
		</g>
	</g>
	<path style="fill:none;stroke:#182B35;stroke-width:1.5432;stroke-linecap:round;stroke-linejoin:round;stroke-miterlimit:10;" d="
		M316.95,97.88c-12.54,1.16-15.22,17.47-8.49,26.01c2.09,2.65,5.44,5.76,8.49,7.23"/>
	
		<path style="fill:#FFFFFF;stroke:#182B35;stroke-width:1.5432;stroke-linecap:round;stroke-linejoin:round;stroke-miterlimit:10;" d="
		M325,96.54c0,0-1.26-9.5,3.33-15.56l2.57,1.28C330.9,82.27,327.91,82.53,325,96.54z"/>
	<g>
		
			<path style="fill:#FFFFFF;stroke:#182B35;stroke-width:1.5432;stroke-linecap:round;stroke-linejoin:round;stroke-miterlimit:10;" d="
			M312.79,78.95c0,0-4.17,15.13,11.84,16.14C324.63,95.09,329.33,80.7,312.79,78.95z"/>
		
			<line style="fill:none;stroke:#182B35;stroke-width:1.5432;stroke-linecap:round;stroke-linejoin:round;stroke-miterlimit:10;" x1="315.57" y1="82.75" x2="324.63" y2="95.09"/>
		<g>
			
				<line style="fill:none;stroke:#182B35;stroke-width:1.5432;stroke-linecap:round;stroke-linejoin:round;stroke-miterlimit:10;" x1="314.76" y1="85.61" x2="317.59" y2="85.45"/>
			
				<line style="fill:none;stroke:#182B35;stroke-width:1.5432;stroke-linecap:round;stroke-linejoin:round;stroke-miterlimit:10;" x1="315.89" y1="87.83" x2="319.27" y2="87.74"/>
			
				<line style="fill:none;stroke:#182B35;stroke-width:1.5432;stroke-linecap:round;stroke-linejoin:round;stroke-miterlimit:10;" x1="317.54" y1="90.07" x2="320.92" y2="89.99"/>
			
				<line style="fill:none;stroke:#182B35;stroke-width:1.5432;stroke-linecap:round;stroke-linejoin:round;stroke-miterlimit:10;" x1="319.1" y1="92.2" x2="322.48" y2="92.11"/>
		</g>
		<g>
			
				<line style="fill:none;stroke:#182B35;stroke-width:1.5432;stroke-linecap:round;stroke-linejoin:round;stroke-miterlimit:10;" x1="318.78" y1="82.66" x2="317.77" y2="85.31"/>
			
				<line style="fill:none;stroke:#182B35;stroke-width:1.5432;stroke-linecap:round;stroke-linejoin:round;stroke-miterlimit:10;" x1="320.56" y1="84.41" x2="319.46" y2="87.61"/>
			
				<line style="fill:none;stroke:#182B35;stroke-width:1.5432;stroke-linecap:round;stroke-linejoin:round;stroke-miterlimit:10;" x1="322.2" y1="86.65" x2="321.1" y2="89.85"/>
			
				<line style="fill:none;stroke:#182B35;stroke-width:1.5432;stroke-linecap:round;stroke-linejoin:round;stroke-miterlimit:10;" x1="323.76" y1="88.78" x2="322.66" y2="91.98"/>
		</g>
	</g>
</g>
<g>
	<g>
		
			<rect x="66" y="329.11" style="fill:#FFFFFF;stroke:#182B35;stroke-width:1.608;stroke-linecap:round;stroke-miterlimit:10;" width="77.06" height="5.07"/>
	</g>
	<g>
		<g>
			<path style="fill:#FFFFFF;stroke:#182B35;stroke-width:1.5432;stroke-linecap:round;stroke-miterlimit:10;" d="M77.32,339.89
				c0,0.72-0.58,1.3-1.3,1.3h-6.1c-0.71,0-1.3-0.58-1.3-1.3v-16.48c0-0.72,0.58-1.3,1.3-1.3h6.1c0.72,0,1.3,0.58,1.3,1.3V339.89z"/>
		</g>
	</g>
	<g>
		<g>
			<path style="fill:#7AD0E2;stroke:#182B35;stroke-width:1.5432;stroke-linecap:round;stroke-miterlimit:10;" d="M92.71,343.5
				c0,1.03-0.84,1.87-1.87,1.87h-8.78c-1.03,0-1.87-0.84-1.87-1.87v-23.71c0-1.03,0.83-1.87,1.87-1.87h8.78
				c1.03,0,1.87,0.84,1.87,1.87V343.5z"/>
		</g>
	</g>
	<g>
		<g>
			<path style="fill:#FFFFFF;stroke:#182B35;stroke-width:1.5432;stroke-linecap:round;stroke-miterlimit:10;" d="M131.54,339.89
				c0,0.72,0.58,1.3,1.3,1.3h6.1c0.72,0,1.3-0.58,1.3-1.3v-16.48c0-0.72-0.58-1.3-1.3-1.3h-6.1c-0.72,0-1.3,0.58-1.3,1.3V339.89z"/>
		</g>
	</g>
	<g>
		<g>
			<path style="fill:#7AD0E2;stroke:#182B35;stroke-width:1.5432;stroke-linecap:round;stroke-miterlimit:10;" d="M115.45,343.5
				c0,1.03,0.84,1.87,1.87,1.87h8.78c1.03,0,1.87-0.84,1.87-1.87v-23.71c0-1.03-0.84-1.87-1.87-1.87h-8.78
				c-1.03,0-1.87,0.84-1.87,1.87V343.5z"/>
		</g>
	</g>
	<polyline style="fill:none;stroke:#182B35;stroke-width:1.5432;stroke-linecap:round;stroke-miterlimit:10;" points="88.46,322.42 
		90.59,322.42 90.59,340.88 	"/>
	<polyline style="fill:none;stroke:#182B35;stroke-width:1.5432;stroke-linecap:round;stroke-miterlimit:10;" points="
		123.28,322.42 125.41,322.42 125.41,340.88 	"/>
	<polyline style="fill:none;stroke:#182B35;stroke-width:1.5432;stroke-linecap:round;stroke-miterlimit:10;" points="72.66,325.33 
		74.79,325.33 74.79,337.96 	"/>
	<polyline style="fill:none;stroke:#182B35;stroke-width:1.5432;stroke-linecap:round;stroke-miterlimit:10;" points="
		135.88,325.33 138.01,325.33 138.01,337.96 	"/>
</g>
<g>
	<path style="fill:#7AD0E2;stroke:#182B35;stroke-width:1.1049;stroke-miterlimit:10;" d="M352.25,268.42
		c-7.64-1.16-9.12,4.71-9.12,4.71s-1.48-5.87-9.12-4.71c0,0-10.43,1.83-7.59,14.1c0,0,2.96,12.27,16.71,17.97
		c13.75-5.7,16.7-17.97,16.7-17.97C362.68,270.25,352.25,268.42,352.25,268.42z"/>
	<polyline style="fill:none;stroke:#182B35;stroke-width:1.1049;stroke-miterlimit:10;" points="322.09,284.38 334.37,284.38 
		337.58,277.24 340.07,291.23 342.28,283.57 364.7,283.57 	"/>
</g>
<g>
	<g>
		
			<path style="fill:#FFFFFF;stroke:#182B35;stroke-width:1.0861;stroke-linecap:round;stroke-linejoin:round;stroke-miterlimit:10;" d="
			M102.27,142.1h-3.65c-1.5,0-2.75,1.04-3.09,2.43v0c0,0,0,0.01-0.01,0.02c-0.01,0.04-0.02,0.07-0.03,0.11
			c-0.11,0.4-0.54,1.61-1.85,1.61v0H78.64v0c-1.56,0-1.88-1.74-1.88-1.74v0.01c-0.34-1.4-1.59-2.44-3.1-2.44h-3.65
			c-1.76,0-3.19,1.43-3.19,3.19v9.57c0,1.76,1.43,3.19,3.19,3.19h3.65c1.5,0,2.76-1.04,3.1-2.44v0.01c0,0,0.32-1.74,1.88-1.74v0
			h15.01v0c1.3,0,1.74,1.21,1.85,1.61c0.01,0.04,0.02,0.07,0.03,0.11c0,0.01,0.01,0.02,0.01,0.02v-0.01c0.34,1.4,1.6,2.43,3.09,2.43
			h3.65c1.76,0,3.19-1.43,3.19-3.19v-9.57C105.46,143.53,104.03,142.1,102.27,142.1z"/>
	</g>
	<g>
		
			<path style="fill:#7AD0E2;stroke:#182B35;stroke-width:1.0861;stroke-linecap:round;stroke-linejoin:round;stroke-miterlimit:10;" d="
			M102.27,162.29h-3.65c-1.5,0-2.75,1.04-3.09,2.43v0c0,0,0,0.01-0.01,0.02c-0.01,0.04-0.02,0.07-0.03,0.11
			c-0.11,0.4-0.54,1.61-1.85,1.61v0H78.64v0c-1.56,0-1.88-1.74-1.88-1.74v0.01c-0.34-1.4-1.59-2.44-3.1-2.44h-3.65
			c-1.76,0-3.19,1.43-3.19,3.19v9.58c0,1.76,1.43,3.19,3.19,3.19h3.65c1.5,0,2.76-1.04,3.1-2.44v0.01c0,0,0.32-1.74,1.88-1.74v0
			h15.01v0c1.3,0,1.74,1.21,1.85,1.61c0.01,0.04,0.02,0.07,0.03,0.11c0,0.01,0.01,0.02,0.01,0.02v-0.01c0.34,1.4,1.6,2.43,3.09,2.43
			h3.65c1.76,0,3.19-1.43,3.19-3.19v-9.58C105.46,163.72,104.03,162.29,102.27,162.29z"/>
	</g>
	<path style="fill:none;stroke:#182B35;stroke-width:1.1003;stroke-linecap:round;stroke-linejoin:round;stroke-miterlimit:10;" d="
		M100.52,143.98c1.32,0,2.4,1.1,2.4,2.46v6.64c0,1.36-1.07,2.46-2.4,2.46"/>
	<path style="fill:none;stroke:#182B35;stroke-width:1.0861;stroke-linecap:round;stroke-linejoin:round;stroke-miterlimit:10;" d="
		M72.26,144.13c1.32,0,2.4,1.07,2.4,2.4v6.47c0,1.32-1.07,2.4-2.4,2.4"/>
	<path style="fill:none;stroke:#182B35;stroke-width:1.0861;stroke-linecap:round;stroke-linejoin:round;stroke-miterlimit:10;" d="
		M100.55,164.64c1.32,0,2.4,1.07,2.4,2.4v6.46c0,1.32-1.08,2.4-2.4,2.4"/>
	<path style="fill:none;stroke:#182B35;stroke-width:1.0861;stroke-linecap:round;stroke-linejoin:round;stroke-miterlimit:10;" d="
		M72.85,164.64c1.33,0,2.4,1.07,2.4,2.4v6.46c0,1.33-1.07,2.4-2.4,2.4"/>
</g>
<g>
	<path style="fill:none;stroke:#182B35;stroke-width:1.1082;stroke-linecap:round;stroke-linejoin:round;stroke-miterlimit:10;" d="
		M380.66,216.66c0,3.62-2.93,6.55-6.55,6.55h-28.73c-3.62,0-6.55-2.93-6.55-6.55v-27.45c0-3.62,2.93-6.55,6.55-6.55h28.73
		c3.62,0,6.55,2.93,6.55,6.55V216.66z"/>
	
		<path style="fill:#7AD0E2;stroke:#182B35;stroke-width:1.0045;stroke-linecap:round;stroke-linejoin:round;stroke-miterlimit:10;" d="
		M378.7,215.38c0,3.28-2.66,5.94-5.94,5.94h-26.05c-3.28,0-5.94-2.66-5.94-5.94v-24.88c0-3.28,2.66-5.94,5.94-5.94h26.05
		c3.28,0,5.94,2.66,5.94,5.94V215.38z"/>
	
		<rect x="353.19" y="187.54" style="fill:none;stroke:#182B35;stroke-width:1.0045;stroke-linecap:round;stroke-linejoin:round;stroke-miterlimit:10;" width="13.1" height="4.99"/>
	<g>
		<g>
			<path style="fill:#182B35;" d="M354.36,192.75c-0.16,0-0.28-0.13-0.28-0.28v-1.57c0-0.15,0.13-0.28,0.28-0.28
				c0.15,0,0.28,0.13,0.28,0.28v1.57C354.64,192.63,354.51,192.75,354.36,192.75z"/>
		</g>
		<g>
			<path style="fill:#182B35;" d="M355.7,192.75c-0.16,0-0.28-0.13-0.28-0.28v-1.57c0-0.15,0.13-0.28,0.28-0.28
				c0.15,0,0.28,0.13,0.28,0.28v1.57C355.99,192.63,355.86,192.75,355.7,192.75z"/>
		</g>
		<g>
			<path style="fill:#182B35;" d="M357.05,192.75c-0.16,0-0.28-0.13-0.28-0.28v-1.57c0-0.15,0.13-0.28,0.28-0.28
				c0.15,0,0.28,0.13,0.28,0.28v1.57C357.33,192.63,357.2,192.75,357.05,192.75z"/>
		</g>
		<g>
			<path style="fill:#182B35;" d="M358.39,192.75c-0.15,0-0.28-0.13-0.28-0.28v-1.57c0-0.15,0.13-0.28,0.28-0.28
				c0.16,0,0.28,0.13,0.28,0.28v1.57C358.67,192.63,358.55,192.75,358.39,192.75z"/>
		</g>
		<g>
			<path style="fill:#182B35;" d="M359.74,192.75c-0.15,0-0.28-0.13-0.28-0.28v-3.59c0-0.16,0.13-0.28,0.28-0.28
				c0.16,0,0.28,0.13,0.28,0.28v3.59C360.02,192.63,359.89,192.75,359.74,192.75z"/>
		</g>
		<g>
			<path style="fill:#182B35;" d="M361.08,192.75c-0.16,0-0.28-0.13-0.28-0.28v-1.57c0-0.15,0.13-0.28,0.28-0.28
				c0.15,0,0.28,0.13,0.28,0.28v1.57C361.36,192.63,361.24,192.75,361.08,192.75z"/>
		</g>
		<g>
			<path style="fill:#182B35;" d="M362.43,192.75c-0.16,0-0.28-0.13-0.28-0.28v-1.57c0-0.15,0.13-0.28,0.28-0.28
				c0.15,0,0.28,0.13,0.28,0.28v1.57C362.71,192.63,362.58,192.75,362.43,192.75z"/>
		</g>
		<g>
			<path style="fill:#182B35;" d="M363.77,192.75c-0.15,0-0.28-0.13-0.28-0.28v-1.57c0-0.15,0.13-0.28,0.28-0.28
				c0.16,0,0.28,0.13,0.28,0.28v1.57C364.05,192.63,363.92,192.75,363.77,192.75z"/>
		</g>
		<g>
			<path style="fill:#182B35;" d="M365.11,192.75c-0.15,0-0.28-0.13-0.28-0.28v-1.57c0-0.15,0.13-0.28,0.28-0.28
				c0.16,0,0.28,0.13,0.28,0.28v1.57C365.39,192.63,365.27,192.75,365.11,192.75z"/>
		</g>
	</g>
	<g>
		
			<path style="fill:none;stroke:#182B35;stroke-width:1.0045;stroke-linecap:round;stroke-linejoin:round;stroke-miterlimit:10;" d="
			M348.99,197.93c1.34-1.54,4.98-4.12,6.73-1.74c1.68,2.3-0.49,5.69-1.56,7.78c-1.64,3.21-1.78,5.28-0.8,8.77
			c0,0,1.09,3.9-1.56,4.84c0,0-4.53,1.71-4.37-3.59c0,0,0.15-2.81,0-8.11c-0.11-2.03-0.19-4.59,0.62-6.49
			C348.24,198.91,348.57,198.41,348.99,197.93z"/>
		
			<path style="fill:none;stroke:#182B35;stroke-width:1.0045;stroke-linecap:round;stroke-linejoin:round;stroke-miterlimit:10;" d="
			M370.48,197.93c-1.34-1.54-4.98-4.12-6.73-1.74c-1.68,2.3,0.5,5.69,1.56,7.78c1.64,3.21,1.78,5.28,0.8,8.77
			c0,0-1.09,3.9,1.56,4.84c0,0,4.52,1.71,4.37-3.59c0,0-0.15-2.81,0-8.11c0.11-2.03,0.19-4.59-0.62-6.49
			C371.23,198.91,370.9,198.41,370.48,197.93z"/>
	</g>
</g>
<g>
	<path style="fill:none;stroke:#182B35;stroke-width:1.2153;stroke-linecap:round;stroke-linejoin:round;stroke-miterlimit:10;" d="
		M86.85,261.84c0,2.48-2.01,4.5-4.5,4.5H57.23c-2.48,0-4.49-2.01-4.49-4.5v-40.46c0-2.48,2.01-4.5,4.49-4.5h25.13
		c2.48,0,4.5,2.01,4.5,4.5V261.84z"/>
	
		<rect x="56.78" y="220.29" style="fill:none;stroke:#182B35;stroke-width:1.0621;stroke-linecap:round;stroke-linejoin:round;stroke-miterlimit:10;" width="26.02" height="26.17"/>
	
		<path style="fill:#7AD0E2;stroke:#182B35;stroke-width:1.0621;stroke-linecap:round;stroke-linejoin:round;stroke-miterlimit:10;" d="
		M69.79,248.25c-4.31,0-7.8,3.49-7.8,7.8c0,4.31,3.49,7.8,7.8,7.8c4.31,0,7.8-3.49,7.8-7.8C77.59,251.74,74.1,248.25,69.79,248.25z
		 M69.79,258.62c-1.42,0-2.57-1.15-2.57-2.57c0-1.42,1.15-2.57,2.57-2.57c1.42,0,2.57,1.15,2.57,2.57
		C72.36,257.47,71.21,258.62,69.79,258.62z"/>
</g>
<g>
	
		<circle style="fill:none;stroke:#182B35;stroke-width:2.7832;stroke-linecap:round;stroke-miterlimit:10;stroke-dasharray:5.615,5.615;" cx="325" cy="112.9" r="44.69"/>
</g>
<g>
	
		<circle style="fill:none;stroke:#182B35;stroke-width:2.7832;stroke-linecap:round;stroke-miterlimit:10;stroke-dasharray:5.4385,5.4385;" cx="359.74" cy="202.93" r="38.09"/>
</g>
<g>
	
		<circle style="fill:none;stroke:#182B35;stroke-width:2.7832;stroke-linecap:round;stroke-miterlimit:10;stroke-dasharray:5.5487,5.5487;" cx="343.39" cy="284.38" r="31.8"/>
</g>
<g>
	
		<circle style="fill:none;stroke:#182B35;stroke-width:2.7832;stroke-linecap:round;stroke-miterlimit:10;stroke-dasharray:5.5272,5.5272;" cx="296.25" cy="346.3" r="22.88"/>
</g>
<g>
	<g>
		
			<circle style="fill:none;stroke:#182B35;stroke-width:2.7832;stroke-linecap:round;stroke-miterlimit:10;stroke-dasharray:5.615,5.615;" cx="104.53" cy="331.65" r="44.69"/>
	</g>
</g>
<g>
	<g>
		
			<circle style="fill:none;stroke:#182B35;stroke-width:2.7832;stroke-linecap:round;stroke-miterlimit:10;stroke-dasharray:5.4386,5.4386;" cx="69.8" cy="241.62" r="38.1"/>
	</g>
</g>
<g>
	<g>
		
			<circle style="fill:none;stroke:#182B35;stroke-width:2.7832;stroke-linecap:round;stroke-miterlimit:10;stroke-dasharray:5.5488,5.5488;" cx="86.14" cy="160.17" r="31.8"/>
	</g>
</g>
<g>
	<g>
		
			<circle style="fill:none;stroke:#182B35;stroke-width:2.7832;stroke-linecap:round;stroke-miterlimit:10;stroke-dasharray:5.5272,5.5272;" cx="133.28" cy="98.25" r="22.88"/>
	</g>
</g>
<g>
	
		<path style="fill:#FFFFFF;stroke:#182B35;stroke-width:0.8581;stroke-linecap:round;stroke-linejoin:round;stroke-miterlimit:10;" d="
		M124.55,93.58"/>
	
		<path style="fill:#FFFFFF;stroke:#182B35;stroke-width:0.8581;stroke-linecap:round;stroke-linejoin:round;stroke-miterlimit:10;" d="
		M137.23,84.01"/>
	
		<path style="fill:#FFFFFF;stroke:#182B35;stroke-width:0.8581;stroke-linecap:round;stroke-linejoin:round;stroke-miterlimit:10;" d="
		M137.86,106.89"/>
	
		<path style="fill:#FFFFFF;stroke:#182B35;stroke-width:0.8581;stroke-linecap:round;stroke-linejoin:round;stroke-miterlimit:10;" d="
		M147.43,94.21"/>
</g>
<g>
	
		<circle style="fill:none;stroke:#182B35;stroke-width:1.8555;stroke-linecap:round;stroke-miterlimit:10;" cx="269.9" cy="53.19" r="4.33"/>
	
		<circle style="fill:none;stroke:#182B35;stroke-width:1.8555;stroke-linecap:round;stroke-miterlimit:10;" cx="82.8" cy="89.74" r="4.33"/>
	
		<circle style="fill:none;stroke:#182B35;stroke-width:1.8555;stroke-linecap:round;stroke-miterlimit:10;" cx="123.28" cy="48.86" r="4.33"/>
	
		<circle style="fill:none;stroke:#182B35;stroke-width:1.8555;stroke-linecap:round;stroke-miterlimit:10;" cx="166.87" cy="207.72" r="4.33"/>
	
		<circle style="fill:none;stroke:#182B35;stroke-width:1.8555;stroke-linecap:round;stroke-miterlimit:10;" cx="36.03" cy="384.4" r="4.33"/>
	
		<circle style="fill:none;stroke:#182B35;stroke-width:1.8555;stroke-linecap:round;stroke-miterlimit:10;" cx="252.99" cy="376.34" r="4.33"/>
	
		<circle style="fill:none;stroke:#182B35;stroke-width:1.8555;stroke-linecap:round;stroke-miterlimit:10;" cx="359.74" cy="377.38" r="4.33"/>
	
		<circle style="fill:none;stroke:#182B35;stroke-width:1.8555;stroke-linecap:round;stroke-miterlimit:10;" cx="364.07" cy="75.37" r="4.33"/>
	
		<circle style="fill:none;stroke:#182B35;stroke-width:1.8555;stroke-linecap:round;stroke-miterlimit:10;" cx="384.99" cy="252.58" r="4.33"/>
	
		<circle style="fill:none;stroke:#182B35;stroke-width:1.8555;stroke-linecap:round;stroke-miterlimit:10;" cx="156.15" cy="268.27" r="4.33"/>
	
		<circle style="fill:none;stroke:#182B35;stroke-width:1.8555;stroke-linecap:round;stroke-miterlimit:10;" cx="281.84" cy="286.95" r="4.33"/>
	
		<circle style="fill:none;stroke:#182B35;stroke-width:1.8555;stroke-linecap:round;stroke-miterlimit:10;" cx="31.7" cy="190.04" r="4.33"/>
	
		<circle style="fill:none;stroke:#182B35;stroke-width:1.8555;stroke-linecap:round;stroke-miterlimit:10;" cx="380.66" cy="148.36" r="4.33"/>
	
		<circle style="fill:none;stroke:#182B35;stroke-width:1.8555;stroke-linecap:round;stroke-miterlimit:10;" cx="290.3" cy="192.75" r="4.33"/>
	
		<circle style="fill:none;stroke:#182B35;stroke-width:1.8555;stroke-linecap:round;stroke-miterlimit:10;" cx="56.49" cy="315.74" r="4.33"/>
	
		<circle style="fill:none;stroke:#182B35;stroke-width:1.8555;stroke-linecap:round;stroke-miterlimit:10;" cx="156.15" cy="167.95" r="4.33"/>
	
		<circle style="fill:none;stroke:#182B35;stroke-width:1.8555;stroke-linecap:round;stroke-miterlimit:10;" cx="48.41" cy="124.83" r="4.33"/>
	
		<circle style="fill:none;stroke:#182B35;stroke-width:1.8555;stroke-linecap:round;stroke-miterlimit:10;" cx="367.63" cy="336.12" r="4.33"/>
</g>
<ellipse style="fill:#E6E7E8;" cx="217.72" cy="393.52" rx="46.09" ry="9.13"/>
<g>
	<g>
		<g>
			<path style="fill:#FCC5A2;" d="M251.95,218.19c0,0,1.06,1.44,2.91,3.95c1.81,2.5,4.37,6.07,7.36,10.43
				c2.99,4.38,6.43,9.5,9.93,15.36c1.75,2.96,3.51,6.02,5.2,9.68c0.42,0.93,0.84,1.9,1.25,3.01c0.4,1.12,0.82,2.31,1.15,4.04
				c0.08,0.51,0.15,0.91,0.2,1.54c0.02,0.32,0.04,0.54,0.04,0.93l-0.01,0.55l-0.01,0.27l-0.01,0.14l-0.06,0.68l-0.06,0.32l-0.07,0.4
				l-0.15,0.66c-0.26,1.04-0.43,1.33-0.63,1.86c-0.79,1.79-1.55,2.81-2.29,3.81c-1.46,1.89-2.86,3.29-4.26,4.64
				c-1.39,1.33-2.77,2.54-4.15,3.7c-2.75,2.31-5.47,4.41-8.13,6.4c-5.31,3.95-10.32,7.4-14.65,10.31
				c-4.33,2.91-7.96,5.26-10.52,6.89c-2.58,1.63-4.05,2.56-4.05,2.56l-5.9-8.51c0,0,1.33-1.05,3.65-2.88
				c2.32-1.85,5.64-4.52,9.54-7.78c3.9-3.26,8.41-7.12,13.01-11.36c2.29-2.12,4.62-4.34,6.81-6.62c1.09-1.14,2.15-2.29,3.12-3.44
				c0.95-1.13,1.84-2.29,2.37-3.19c0.24-0.41,0.41-0.84,0.26-0.64c-0.06,0.12-0.05,0.01-0.22,0.64c-0.03,0.12-0.05,0.24-0.07,0.35
				l-0.02,0.17l0.01-0.08l0.03-0.32l-0.08,0.77l-0.01,0.23c0.01,0.18-0.01,0.19-0.01,0.29c0.02,0.21-0.02,0.19,0,0.28
				c-0.05,0.07-0.24-0.34-0.51-0.78c-0.27-0.46-0.61-1-0.98-1.56c-1.53-2.27-3.46-4.74-5.39-7.06c-3.88-4.67-7.86-8.99-11.29-12.64
				c-3.45-3.66-6.4-6.66-8.46-8.74c-2.06-2.04-3.23-3.21-3.23-3.21L251.95,218.19z"/>
		</g>
	</g>
	<g>
		<g>
			<path style="fill:#FCC5A2;" d="M239.38,126.72c0,0,0.72-1.39,1.97-3.81c1.25-2.46,3.02-5.99,5.05-10.25
				c2.02-4.26,4.33-9.27,6.51-14.64c1.08-2.67,2.15-5.46,2.99-8.18c0.44-1.36,0.79-2.71,1.04-3.89c0.06-0.3,0.12-0.59,0.15-0.83
				l0.06-0.38l0.03-0.28l0.02-0.13l0.01-0.07l0-0.02c0.01,0.09-0.02-0.23,0.02,0.2l0-0.08l-0.04-0.6c-0.01-0.09-0.01-0.08-0.01-0.12
				c0.02,0-0.02-0.16-0.03-0.24c-0.24-1.65-1.5-4.03-3.11-6.18c-1.61-2.19-3.57-4.31-5.59-6.28c-4.05-3.95-8.35-7.35-12.1-10.14
				c-3.77-2.8-7.04-4.99-9.34-6.49c-1.16-0.74-2.06-1.31-2.68-1.71c-0.61-0.37-0.93-0.57-0.93-0.57l3.69-6.83
				c0,0,0.38,0.19,1.09,0.55c0.68,0.36,1.69,0.88,2.96,1.55c2.53,1.36,6.12,3.34,10.33,5.93c4.21,2.61,9.05,5.79,14,9.84
				c2.47,2.04,4.97,4.28,7.36,6.99c1.19,1.36,2.36,2.82,3.42,4.51c1.06,1.69,2.06,3.6,2.71,5.91c0.08,0.31,0.16,0.54,0.23,0.93
				c0.07,0.35,0.15,0.76,0.2,1.06l0.09,0.6l0.01,0.07l0.03,0.33l0.02,0.23l0.03,0.47c0.02,0.31,0.04,0.64,0.04,0.93l-0.01,0.82
				c0,0.57-0.04,1.07-0.08,1.56c-0.16,1.98-0.43,3.77-0.75,5.47c-0.63,3.42-1.44,6.57-2.26,9.61c-1.66,6.05-3.43,11.51-5,16.18
				c-1.57,4.66-2.96,8.51-3.95,11.21c-1.02,2.71-1.6,4.26-1.6,4.26L239.38,126.72z"/>
		</g>
	</g>
	<path style="fill:#414042;" d="M249.86,280.3l12.42-12.77c0,0-37.56-24.03-40.31-28.01c-6.13-8.87,30.97-24.2,30.97-24.2
		s34.33,35.68,34.33,50.82c0,11.23-27.26,25.88-27.26,25.88L249.86,280.3z"/>
	<g>
		<path style="fill:#FCC5A2;" d="M213.59,24.38c0.26,1.28-0.59,14.05-0.16,14.39c0.32,0.25,3.49,1.41,3.88,0.35
			c1.35-3.66,0.79-11.98,0.34-14.61c-0.26-1.48-1.21-2.78-3.39-2.49C213.33,22.13,213.29,22.86,213.59,24.38z"/>
		<path style="fill:#DE9C73;" d="M213.04,25.1c0.25,1.16-0.04,12.59,0.33,12.9c0.27,0.23,2.9,1.38,3.19,0.43
			c0.99-3.24,0.27-10.72-0.19-13.1c-0.26-1.34-1.46-2.26-3.24-2.07C212.37,23.35,212.74,23.73,213.04,25.1z"/>
		<path style="fill:#FCC5A2;" d="M212.47,25.39c0.25,1.16-0.04,12.59,0.33,12.9c0.27,0.23,2.9,1.38,3.19,0.44
			c0.99-3.24,0.27-10.72-0.19-13.1c-0.26-1.34-1.08-2.53-2.85-2.35C212.19,23.37,212.17,24.02,212.47,25.39z"/>
		<path style="fill:#DE9C73;" d="M211.74,28.14c0.25,1.1,0.37,11.83,0.7,12.13c0.24,0.23,2.54,1.39,2.76,0.51
			c0.75-3.01-0.11-10.07-0.58-12.32c-0.26-1.27-1.33-2.17-2.85-2.05C211.1,26.47,211.44,26.84,211.74,28.14z"/>
		<path style="fill:#FCC5A2;" d="M211.26,28.39c0.25,1.1,0.37,11.83,0.7,12.14c0.24,0.23,2.54,1.39,2.76,0.51
			c0.75-3.01-0.12-10.07-0.58-12.32c-0.27-1.27-1.01-2.42-2.53-2.3C210.94,26.48,210.96,27.09,211.26,28.39z"/>
		<path style="fill:#FCC5A2;" d="M208.93,45.55c-0.13,6.63,0.89,8.72,3.05,7.69c1.46-0.7,2.47,1.25,5.32-1.31
			c2.53-2.27-0.17-5.69,0.12-11.31c0.08-1.51,1.08-4.15,0.48-5c-0.48-0.68-2.47-0.11-3.49,0.23
			C210.75,37.04,208.98,42.83,208.93,45.55z"/>
	</g>
	<g>
		<path style="fill:#FCC5A2;" d="M219.92,235.71c0,0-0.18,0.52-0.51,1.48c-0.08,0.24-0.18,0.51-0.28,0.81
			c-0.05,0.15-0.1,0.3-0.16,0.46c-0.03,0.11-0.06,0.23-0.09,0.35c-0.13,0.48-0.29,1.03-0.48,1.65c-0.38,1.54-0.87,3.55-1.31,5.97
			c-0.46,2.4-0.91,5.21-1.35,8.31c-1.76,12.44-3.1,29.7-3.95,47.01c-0.87,17.32-1.32,34.74-1.54,47.8
			c-0.08,6.53-0.15,11.98-0.19,15.79c-0.02,3.8-0.03,5.97-0.03,5.97l-10.34,0.52c0,0-0.21-2.19-0.58-6.02
			c-0.34-3.82-0.82-9.29-1.4-15.84c-1.1-13.11-2.41-30.61-3.29-48.21c-0.9-17.61-1.33-35.28-0.79-48.94
			c0.13-3.42,0.32-6.58,0.57-9.45c0.24-2.86,0.57-5.42,0.89-7.63c0.23-1.25,0.44-2.36,0.62-3.33c0.05-0.24,0.09-0.48,0.14-0.7
			c0.04-0.17,0.08-0.33,0.11-0.49c0.07-0.31,0.14-0.58,0.2-0.83c0.24-1,0.36-1.53,0.36-1.53L219.92,235.71z"/>
	</g>
	<path style="fill:#249DC3;" d="M197.92,358.6c0.22,3.22,0.51,6.06,0.67,8.2c0.25,3.18,1.08,4.91,1.08,4.91l10.35-0.27
		c0,0,0.07-1.78,0.21-4.9c0.09-2.09,0.23-4.78,0.4-7.93H197.92z"/>
	<path style="fill:#E4E5E6;" d="M206.91,358.6c1.56,3.77,1.44,9.39-0.8,12.55c-0.1,0.14-0.21,0.26-0.32,0.39l4.22-0.11
		c0,0,0.07-1.78,0.21-4.9c0.09-2.09,0.23-4.78,0.4-7.93H206.91z"/>
	<path style="fill:#414042;" d="M210.62,333.06c2.64-20.91,10.96-90.84,14.62-93.21c9.05-5.85-37.45-23.22-37.45-23.22
		s-3.08,30.45,7.32,116.43H210.62z"/>
	<path style="fill:#FDBB24;" d="M249.33,90.47c0,20.07-16.25,77.7-29.59,77.7c-13.33,0-30.63-57.63-30.63-77.7
		c0-8.86,2.55-34.85,30.23-34.85C244.39,55.62,249.33,85.22,249.33,90.47z"/>
	<path style="fill:#FCC5A2;" d="M230.14,127.23c0,0-3.73-6.04-0.62-11.61c1.99-2.37-21.15-0.12-18.41,1.62
		c2.54,6.37-0.45,9.99-0.45,9.99l-7.7,3.77l-2.12,16.18h37.77L235.64,131L230.14,127.23z"/>
	<path style="fill:#DE9C73;" d="M211.1,117.24c1.32,3.3,1.14,5.85,0.68,7.56c3.79,2.09,7.09,2.8,11.49,2
		c2.85-0.52,4.55-1.97,5.51-2.88c-0.63-2.25-0.91-5.34,0.74-8.3C231.51,113.26,208.36,115.51,211.1,117.24z"/>
	<path style="fill:#414042;" d="M252.99,215.65c0,18.76-16.22,27.84-32.45,27.84c-16.22,0-32.75-4.61-32.75-26.86
		C190.01,205.5,251.64,204.38,252.99,215.65z"/>
	<path style="fill:#249DC3;" d="M252.99,215.65c-1.18-13.46-8.17-26.03-8.17-26.03s1.08-13,2.67-15.87
		c4.01-7.27,0.14-17.99,0.14-17.99l-10.24-28.03l-5.84-0.51c0,0-0.31,11.07-11.66,11.07c-11.34,0-10.86-11.07-10.86-11.07
		l-6.82-0.11l-9.99,32.76c0,0-3.14,5.61,0.74,13.88c2.2,4.7,3.29,15.11,3.29,15.11s-7.64,13.63-8.45,27.76
		C198.93,230.18,244.73,228.91,252.99,215.65z"/>
	<path style="fill:#56B9D6;" d="M234.98,127.53l-3.43-0.3c0,0-0.31,11.07-11.66,11.07c-11.34,0-10.86-11.07-10.86-11.07l-3.6-0.11
		c0,0-1.29,15.33,14.29,15.33C235.1,142.44,234.98,127.53,234.98,127.53z"/>
	<path style="fill:#FCC5A2;" d="M242.76,93.48c0,3.79-0.3,9.24-1.27,12.27c-3.46,10.79-14.48,19.09-22.01,19.09
		c-6.42,0-20.24-9.28-23.12-19.09c-0.9-3.06-1.5-8.58-1.5-12.27c0-21.36,6.59-32.09,24.01-32.09
		C236.27,61.39,242.76,72.12,242.76,93.48z"/>
	<path style="fill:#FDBB24;" d="M218.59,57.46c-20.66,0-26.04,12.65-28.71,28.5c3.11,0.63,0.73,5.79,0.87,6.95
		c0,0,1.4,7.66,5.51,6.55c3.8-1.02,3.2-1.1,4.57-7.21c1.04-4.62,18.41-5.67,19-18.66c8.97,9.09,15.55,11.47,18.77,19.53
		c1.51,3.93,0.04,4.27,3.29,5.58c4.98,2.01,5.09-5.79,5.09-5.79c0.15-1.16-1.48-1.4,1.63-2.03
		C245.9,72.69,239.24,57.46,218.59,57.46z"/>
	<path style="fill:#CAAFBD;" d="M211.19,178.94c0,0,5.21-8.05,10.17-8.45c4.96-0.4,9.39,3.12,9.39,3.12s-5.2,0.21-9.95,1.33
		C216.06,176.07,211.19,178.94,211.19,178.94z"/>
	<path style="fill:#D1D3D4;" d="M181.19,387.04c7.43-6.5,14.65-15.95,17.06-16.87c1.61-0.62,1.57,1.53,4.71,1.41
		c3.63-0.14,7.15-1.52,7.15-1.52s1.08,0.42,0.85,3.4c-0.23,2.98,3.05,6.7,0.65,9.61c-2.39,2.91-5.31,2.78-7.83,4.69
		c-2.08,1.58-5.06,4.37-8.05,5.62C185.71,397.55,177.03,390.67,181.19,387.04z"/>
	<path style="fill:#D1D3D4;" d="M211.45,378.02c-8.84-3.19-10.69,6.38-16.11,11.04c-3.45,2.96-9.15,3.83-13.86,2.83
		c2.49,2.45,8.12,4.04,14.25,1.48c2.99-1.25,5.97-4.04,8.05-5.62c2.52-1.91,5.44-1.78,7.83-4.69c1.21-1.47,0.97-3.16,0.47-4.85
		C211.87,378.16,211.66,378.1,211.45,378.02z"/>
	<path style="fill:#FCC5A2;" d="M197.48,97.45c0,3.48-0.61,6.96-2.71,6.96c-2.1,0-4.5-1.42-5.72-5.72c-1.89-6.65,1.9-8.34,4-8.34
		C195.15,90.35,197.48,93.96,197.48,97.45z"/>
	<path style="fill:#FCC5A2;" d="M240.21,97.45c0,3.48,0.61,6.96,2.71,6.96c2.1,0,4.62-1.42,5.84-5.72c1.89-6.65-2.02-8.34-4.13-8.34
		C242.53,90.35,240.21,93.96,240.21,97.45z"/>
	<ellipse style="fill:#3C2415;" cx="209.79" cy="94.62" rx="1.78" ry="2.37"/>
	<g>
		<g>
			<path style="fill:#F99D27;" d="M202.87,90.82c0,0,0.05-0.15,0.14-0.42c0.04-0.13,0.13-0.29,0.23-0.48
				c0.09-0.2,0.23-0.37,0.36-0.58c0.29-0.41,0.67-0.86,1.16-1.27c0.47-0.43,1.05-0.79,1.67-1.12c0.31-0.15,0.63-0.31,0.96-0.44
				c0.32-0.15,0.68-0.22,1.02-0.28c0.35,0,0.69-0.03,1.02,0.07c0.32,0.06,0.62,0.17,0.87,0.32c0.26,0.11,0.47,0.29,0.64,0.45
				c0.18,0.15,0.3,0.3,0.39,0.45c0.18,0.28,0.24,0.46,0.24,0.46l-0.12,0.15c0,0-0.2,0-0.48-0.02c-0.14-0.02-0.3-0.02-0.49-0.01
				c-0.18-0.01-0.37,0-0.57,0.02c-0.2,0-0.41,0.04-0.63,0.06c-0.21,0.01-0.45,0.07-0.68,0.07c-0.24,0.04-0.5,0.01-0.77,0.03
				c-0.27,0-0.55,0.05-0.83,0.12c-1.1,0.3-2.18,0.86-2.89,1.41c-0.17,0.14-0.35,0.27-0.46,0.4c-0.12,0.13-0.25,0.23-0.33,0.35
				c-0.17,0.22-0.27,0.35-0.27,0.35L202.87,90.82z"/>
		</g>
	</g>
	<ellipse style="fill:#3C2415;" cx="228.8" cy="94.62" rx="1.78" ry="2.37"/>
	<g>
		<g>
			<path style="fill:#F99D27;" d="M235.55,90.92c0,0-0.1-0.13-0.27-0.35c-0.08-0.11-0.21-0.21-0.33-0.35
				c-0.11-0.13-0.3-0.26-0.46-0.4c-0.71-0.55-1.79-1.12-2.89-1.41c-0.28-0.07-0.56-0.12-0.83-0.12c-0.27-0.03-0.53,0-0.77-0.03
				c-0.23,0.01-0.47-0.06-0.68-0.07c-0.22-0.02-0.43-0.06-0.63-0.06c-0.21-0.02-0.39-0.03-0.57-0.02c-0.18-0.01-0.35-0.01-0.49,0.01
				c-0.28,0.02-0.48,0.02-0.48,0.02l-0.12-0.15c0,0,0.06-0.18,0.24-0.46c0.08-0.15,0.21-0.3,0.39-0.45
				c0.17-0.16,0.38-0.33,0.64-0.45c0.26-0.14,0.55-0.25,0.87-0.32c0.32-0.09,0.66-0.07,1.02-0.07c0.34,0.06,0.7,0.13,1.02,0.28
				c0.33,0.13,0.65,0.29,0.96,0.44c0.62,0.32,1.2,0.68,1.67,1.12c0.49,0.41,0.87,0.87,1.16,1.27c0.14,0.22,0.27,0.39,0.36,0.58
				c0.09,0.19,0.19,0.34,0.23,0.48c0.09,0.26,0.14,0.42,0.14,0.42L235.55,90.92z"/>
		</g>
	</g>
	<path style="fill:#D08359;" d="M219.83,101.45c1.43,0,2.67,0.7,3.33,1.73c-0.13-1.76-1.56-3.15-3.33-3.15
		c-1.77,0-3.2,1.39-3.33,3.15C217.16,102.15,218.4,101.45,219.83,101.45z"/>
	<g>
		<path style="fill:#CF5850;" d="M226.84,111.12c0,0-2.24,4.4-6.74,4.4c-4.6,0-7.26-4.46-7.26-4.46s1.66,1.54,7.03,1.54
			C225.11,112.6,226.84,111.12,226.84,111.12z"/>
		<path style="fill:#DE6658;" d="M226.84,111.12c0,0-2.1,0.09-5.4-1c-0.46,0.02-1.75,0.78-1.75,0.78s-1.26-0.77-1.98-0.82
			c-3.86,0.94-4.88,0.98-4.88,0.98s1.66,1.54,7.03,1.54C225.11,112.6,226.84,111.12,226.84,111.12z"/>
	</g>
	<g>
		<g>
			<path style="fill:#FCC5A2;" d="M180.52,134.32c0,0-0.58-1.55-1.6-4.26c-0.99-2.7-2.38-6.54-3.95-11.21
				c-1.57-4.67-3.34-10.13-5-16.18c-0.82-3.04-1.63-6.19-2.26-9.61c-0.32-1.7-0.6-3.49-0.75-5.47c-0.04-0.49-0.08-0.99-0.08-1.56
				l-0.01-0.82c0-0.28,0.02-0.62,0.04-0.93l0.03-0.47l0.02-0.23l0.03-0.33l0.01-0.07l0.09-0.6c0.05-0.3,0.12-0.71,0.2-1.06
				c0.08-0.4,0.15-0.62,0.23-0.93c0.65-2.32,1.64-4.23,2.71-5.91c1.07-1.69,2.23-3.16,3.42-4.51c2.39-2.7,4.89-4.95,7.36-6.99
				c4.95-4.05,9.8-7.23,14-9.84c4.21-2.6,7.79-4.58,10.33-5.93c1.28-0.67,2.28-1.19,2.96-1.55c0.71-0.36,1.09-0.55,1.09-0.55
				l3.69,6.83c0,0-0.32,0.2-0.93,0.57c-0.62,0.39-1.53,0.97-2.68,1.71c-2.3,1.5-5.57,3.69-9.34,6.49c-3.76,2.8-8.05,6.2-12.1,10.14
				c-2.01,1.97-3.97,4.09-5.59,6.28c-1.61,2.15-2.87,4.54-3.11,6.18c-0.01,0.08-0.05,0.24-0.03,0.24c0,0.05,0,0.03-0.01,0.12
				l-0.04,0.6l0,0.08c0.04-0.43,0.01-0.11,0.02-0.2l0,0.02l0.01,0.07l0.02,0.13l0.03,0.28l0.06,0.38c0.03,0.23,0.09,0.53,0.15,0.83
				c0.25,1.19,0.6,2.53,1.04,3.89c0.85,2.72,1.92,5.51,2.99,8.18c2.18,5.36,4.48,10.37,6.51,14.64c2.03,4.27,3.8,7.8,5.05,10.25
				c1.25,2.42,1.97,3.81,1.97,3.81L180.52,134.32z"/>
		</g>
	</g>
	<path style="fill:#56B9D6;" d="M187.76,105.61c0,0,12.41,17.95,14.44,21.51c2.39,4.19-6.18,28.67-9.2,29.38
		c-11.06-8.72-20.17-41.89-20.17-41.89L187.76,105.61z"/>
	<g>
		<path style="fill:#FCC5A2;" d="M222.28,24.42c-0.23,1.29,0.89,14.03,0.46,14.38c-0.32,0.25-3.46,1.49-3.87,0.43
			c-1.43-3.63-1.04-11.96-0.65-14.6c0.23-1.49,1.15-2.81,3.33-2.56C222.49,22.16,222.55,22.89,222.28,24.42z"/>
		<path style="fill:#DE9C73;" d="M222.85,25.13c-0.23,1.17,0.3,12.58-0.06,12.9c-0.27,0.24-2.87,1.44-3.18,0.5
			c-1.06-3.22-0.49-10.72-0.09-13.1c0.23-1.35,1.42-2.29,3.19-2.14C223.48,23.37,223.11,23.75,222.85,25.13z"/>
		<path style="fill:#FCC5A2;" d="M223.42,25.41c-0.23,1.17,0.3,12.58-0.06,12.9c-0.27,0.24-2.87,1.44-3.18,0.5
			c-1.06-3.21-0.5-10.71-0.09-13.1c0.23-1.34,1.02-2.56,2.8-2.4C223.66,23.38,223.69,24.03,223.42,25.41z"/>
		<path style="fill:#DE9C73;" d="M224.21,28.14c-0.23,1.1-0.12,11.83-0.44,12.15c-0.24,0.23-2.51,1.44-2.75,0.57
			c-0.81-2.99-0.1-10.07,0.33-12.33c0.24-1.27,1.29-2.2,2.81-2.11C224.81,26.46,224.49,26.83,224.21,28.14z"/>
		<path style="fill:#FCC5A2;" d="M224.7,28.38c-0.23,1.1-0.13,11.83-0.44,12.15c-0.24,0.23-2.51,1.44-2.75,0.57
			c-0.81-2.99-0.1-10.07,0.32-12.33c0.24-1.27,0.96-2.44,2.49-2.35C224.97,26.46,224.97,27.08,224.7,28.38z"/>
		<path style="fill:#FCC5A2;" d="M227.38,45.49c0.27,6.63-0.7,8.73-2.89,7.75c-1.47-0.67-2.44,1.3-5.35-1.2
			c-2.57-2.21,0.05-5.69-0.36-11.3c-0.11-1.51-1.17-4.13-0.58-4.99c0.47-0.69,2.47-0.16,3.5,0.15
			C225.38,37.02,227.27,42.77,227.38,45.49z"/>
	</g>
	<path style="fill:#56B9D6;" d="M248.71,105.51c0,0-9.08,18.16-11.11,21.72c-2.39,4.19,7.25,28.55,10.26,29.26
		c11.06-8.72,15.94-41.89,15.94-41.89L248.71,105.51z"/>
	<path style="fill:#249DC3;" d="M240.25,304.81c-2.58,1.95-7.95,5.68-10.66,7.54c-2.71,1.86-7.63-8.09-7.63-8.09
		s0.08-0.07,2.35-2.22c1.51-1.44,8.25-5.94,8.25-5.94L240.25,304.81z"/>
	<path style="fill:#E4E5E6;" d="M235.96,299.96c-0.57,2.11-1.65,4.1-3.24,5.49c-2.46,2.15-5.22,3.14-8.24,3.16
		c1.62,2.41,3.67,4.73,5.11,3.74c2.71-1.86,8.09-5.59,10.66-7.54L235.96,299.96z"/>
	<path style="fill:#D1D3D4;" d="M224.18,335.59c1.88-9.69,6.41-20.69,6-23.23c-0.28-1.7-2.11-0.59-3.59-3.36
		c-1.71-3.21-2.28-6.94-2.28-6.94s-0.9-0.72-3.36,0.98c-2.46,1.7-7.32,0.74-8.63,4.27c-1.31,3.53,0.27,5.99-0.11,9.13
		c-0.32,2.6-1.23,6.58-0.8,9.79C212.82,336.98,223.13,341.01,224.18,335.59z"/>
	<path style="fill:#D1D3D4;" d="M216.75,304.9c7.21,6.03-0.13,12.45-1.43,19.48c-0.83,4.48,1.3,9.83,4.53,13.4
		c-3.37-0.92-7.57-4.98-8.45-11.57c-0.43-3.21,0.49-7.19,0.8-9.79c0.38-3.14-1.2-5.6,0.11-9.13c0.66-1.79,2.24-2.43,3.95-2.84
		C216.41,304.61,216.57,304.76,216.75,304.9z"/>
</g>
<g>
	<path style="fill:#F69EAF;" d="M68.86,227.18c-1.36,0.04-2.79,0-3.92,0.77c-2.77,1.89-2.4,6.36-0.32,7.47
		c1.82,0.98,4.21,1,6.18,0.53C70.34,232.97,69.97,229.97,68.86,227.18z"/>
	<path style="fill:#235566;" d="M65.49,224.87c-0.5,0.7-0.83,1.48-1.05,2.31c1.07-0.09,2.36-0.1,3.36,0.21
		c0.24-1.22,1.4-1.61,2.62-1.82C69.4,225.15,67.69,224.67,65.49,224.87z"/>
	<path style="fill:#167BAA;" d="M62.61,225.5c-0.04,0.39-0.04,0.78-0.01,1.17c0.02,0.25,0.06,0.5,0.11,0.74
		c0.35-0.06,0.99-0.17,1.74-0.23c0.22-0.82,0.55-1.61,1.05-2.31C64.61,224.95,63.65,225.14,62.61,225.5z"/>
	<path style="fill:#167BAA;" d="M67.8,227.39c0.55,0.17,1.01,0.44,1.28,0.85c1.29-0.96,2.41-2.12,2.41-2.12s-0.38-0.26-1.07-0.55
		C69.2,225.77,68.04,226.17,67.8,227.39z"/>
	<path style="fill:#EE2E3B;" d="M72.66,224.08l0.56-1.04l-1.43-0.97l-0.81,1.16c-0.22-0.06-0.44-0.11-0.67-0.14l-0.19-1.51
		l-1.73,0.04l0.02,1.54c-0.37,0.08-0.74,0.19-1.1,0.34l-0.79-1.18l-1.53,0.81l0.69,1.35c-3.23,2.77,0.37,7.38,0.37,7.38
		s1.05,0.46,2.03,0.66c-0.94-1.44-1.64-2.93-1.52-4.73c-0.12-2.26,2.09-4.2,4.33-2.95c2.56,1.37,2.37,3.92,1.55,6.41
		c0.29,0.12,0.67,0.24,1.2,0.34C74.43,229.56,74.89,225.91,72.66,224.08z"/>
	<path style="fill:#CC202F;" d="M70.91,224.84c-2.24-1.25-4.45,0.69-4.33,2.95c-0.12,1.79,0.57,3.29,1.52,4.73
		c0.77,0.16,1.48,0.15,1.6-0.37c-2.22-3.3-3.41-6.2-0.52-6.7c3.88-0.71,2.53,5.31,2.53,5.31s0.14,0.24,0.75,0.49
		C73.28,228.76,73.47,226.21,70.91,224.84z"/>
	<path style="fill:#D87B94;" d="M72.14,228.18c-0.83-0.4-1.84-0.73-3.03-1.01c-0.09,0-0.16,0.01-0.25,0.01
		c1.11,2.8,0.17,6.12,1.94,8.77c1.13-0.27,2.16-0.73,2.92-1.36C72.18,232.7,71.08,230.44,72.14,228.18z"/>
	<path style="fill:#EB8CA2;" d="M72.14,228.18c-1.06,2.26,0.04,4.51,1.58,6.41c0.12-0.1,0.24-0.21,0.35-0.33
		C75.53,231.35,74.77,229.45,72.14,228.18z"/>
	<path style="fill:#167BAA;" d="M76.55,226.12c-0.07-0.19-0.18-0.43-0.31-0.73c-6.75-2.38-10.24,6.02-10.24,6.02
		s0.13,0.39,1.09,0.78C68.68,228.51,72.62,226.36,76.55,226.12z"/>
	<path style="fill:#235566;" d="M67.09,232.19c0.55,0.22,1.37,0.44,2.59,0.59c-0.38-5.41,6.88-5.96,6.88-5.96s0.38,0.35-0.02-0.7
		C72.62,226.36,68.68,228.51,67.09,232.19z"/>
	<path style="fill:#DC1E3B;" d="M68.9,238.37c2.12-1.94,2.81-4.46,2.3-6.84c-0.71-0.21-1.37-0.38-1.88-0.57
		c-0.8-0.28-1.62-0.57-2.47-0.61c-3.73-0.21-6.73,4.38-3.54,9.55C65.21,240.28,67.52,239.63,68.9,238.37z"/>
	<path style="fill:#C62039;" d="M76.04,234.71c-0.48-1.78-2.84-2.6-4.84-3.18c0.51,2.38-0.17,4.9-2.3,6.84
		c-1.38,1.26-3.69,1.91-5.59,1.52c0.59,0.95,1.38,1.91,2.42,2.87c0.92,0.86,1.5,2.23,2.9,2.38c2.25,0.24,3.79-2.04,4.58-3.14
		C74.59,240.09,76.73,237.26,76.04,234.71z"/>
</g>
<g>
	<path style="fill:#59595B;" d="M64.1,235.38c0,0.01-0.01,0.01-0.01,0.02c0.1-0.32-0.24-0.57-0.51-0.37
		c0.01-0.01,0.01-0.01,0.02-0.02c-0.26,0.1-0.27,0.46-0.06,0.62C63.74,235.78,64.09,235.66,64.1,235.38z"/>
	<path style="fill:#59595B;" d="M63.96,237c-0.05-0.23-0.25-0.4-0.49-0.36c-0.22,0.03-0.41,0.26-0.36,0.49
		c0.05,0.23,0.25,0.4,0.49,0.36C63.82,237.46,64.01,237.23,63.96,237z"/>
	<path style="fill:#59595B;" d="M64.96,237.43c-0.51,0.08-0.39,0.87,0.12,0.79C65.59,238.15,65.47,237.35,64.96,237.43z"/>
	<path style="fill:#59595B;" d="M64.51,239c-0.21,0.03-0.39,0.25-0.35,0.47c0.04,0.22,0.24,0.38,0.47,0.35
		c0.21-0.03,0.39-0.25,0.35-0.47C64.94,239.13,64.74,238.97,64.51,239z"/>
	<path style="fill:#59595B;" d="M65.86,240.83c-0.19,0.03-0.34,0.22-0.3,0.41c0.04,0.19,0.21,0.33,0.41,0.3
		c0.19-0.03,0.34-0.22,0.3-0.41C66.23,240.94,66.06,240.8,65.86,240.83z"/>
	<path style="fill:#59595B;" d="M66.84,242.47c-0.17,0.12-0.21,0.35-0.1,0.53c0.12,0.2,0.4,0.25,0.59,0.1
		c0.17-0.14,0.19-0.39,0.06-0.56C67.26,242.37,67,242.35,66.84,242.47z"/>
	<path style="fill:#59595B;" d="M68.09,241.45c-0.04-0.21-0.23-0.36-0.44-0.32c-0.2,0.03-0.36,0.24-0.32,0.44
		c0.04,0.21,0.23,0.36,0.44,0.32C67.97,241.86,68.14,241.66,68.09,241.45z"/>
	<path style="fill:#59595B;" d="M68.27,243.91c-0.01,0.01-0.01,0.02-0.02,0.03c-0.13,0.22,0.15,0.43,0.32,0.24
		c0.01-0.01,0.02-0.02,0.02-0.03C68.77,243.96,68.4,243.69,68.27,243.91z"/>
	<path style="fill:#59595B;" d="M70.43,243.4c-0.18,0.03-0.32,0.21-0.29,0.39c0.04,0.18,0.2,0.32,0.39,0.29
		c0.18-0.03,0.32-0.21,0.29-0.39C70.79,243.51,70.63,243.37,70.43,243.4z"/>
	<path style="fill:#59595B;" d="M70.02,242.16c-0.36,0.06-0.27,0.61,0.09,0.56C70.46,242.67,70.37,242.11,70.02,242.16z"/>
	<path style="fill:#59595B;" d="M71.93,241.28c-0.62,0.1-0.47,1.06,0.15,0.97C72.7,242.15,72.55,241.18,71.93,241.28z"/>
	<path style="fill:#59595B;" d="M72.25,239.91c-0.47,0.07-0.36,0.8,0.11,0.73C72.83,240.57,72.72,239.83,72.25,239.91z"/>
	<path style="fill:#59595B;" d="M73.51,239.68c-0.51,0.08-0.39,0.86,0.12,0.79C74.13,240.39,74.01,239.61,73.51,239.68z"/>
	<path style="fill:#59595B;" d="M73.64,237.61c-0.41,0.06-0.31,0.7,0.1,0.64C74.15,238.19,74.05,237.55,73.64,237.61z"/>
	<path style="fill:#59595B;" d="M74.93,237.61c-0.22,0.03-0.41,0.26-0.36,0.49c0.05,0.23,0.25,0.4,0.49,0.36
		c0.22-0.03,0.41-0.26,0.36-0.49C75.38,237.74,75.17,237.57,74.93,237.61z"/>
	<path style="fill:#59595B;" d="M74.66,235.34c-0.5,0.08-0.38,0.85,0.12,0.77C75.27,236.03,75.16,235.26,74.66,235.34z"/>
	<path style="fill:#59595B;" d="M75.64,235.76c-0.34,0.05-0.26,0.59,0.08,0.54C76.06,236.25,75.98,235.71,75.64,235.76z"/>
	<path style="fill:#59595B;" d="M63.88,233.89c0.23-0.03,0.41-0.27,0.37-0.5c-0.05-0.23-0.26-0.41-0.5-0.37
		c-0.23,0.03-0.41,0.27-0.37,0.5C63.42,233.76,63.63,233.93,63.88,233.89z"/>
	<path style="fill:#59595B;" d="M65.17,234.36c0.44-0.07,0.34-0.76-0.11-0.69C64.62,233.74,64.72,234.43,65.17,234.36z"/>
	<path style="fill:#59595B;" d="M73.85,233.55c-0.51,0.08-0.39,0.88,0.12,0.8C74.49,234.27,74.37,233.47,73.85,233.55z"/>
</g>
<path style="fill:#E6E7E8;" d="M67.16,231.51c-1.54-0.85-3.31,0.85-3.83,2.2c-1.01,2.59,1.24,4.52,1.45,2.12
	c0.05-0.53,0.13-1.03,0.41-1.49c0.52-0.85,1.51-0.89,2.13-1.58C67.66,232.4,67.63,231.77,67.16,231.51z"/>
<g>
	<g>
		
			<rect x="120.4" y="100.27" transform="matrix(0.7502 -0.6612 0.6612 0.7502 -34.4002 110.8338)" style="fill:#E6E7E8;" width="18.17" height="1.36"/>
		
			<rect x="129.49" y="93.34" transform="matrix(-0.6612 -0.7502 0.7502 -0.6612 140.4153 268.2596)" style="fill:#D6D7D8;" width="2.58" height="18.17"/>
		
			<rect x="135.04" y="90.94" transform="matrix(0.7502 -0.6612 0.6612 0.7502 -25.5898 115.5044)" style="fill:#EE7A29;" width="10.04" height="1.36"/>
		
			<rect x="140.08" y="88.08" transform="matrix(-0.6613 -0.7501 0.7501 -0.6613 165.0137 260.702)" style="fill:#DE7228;" width="2.58" height="10.04"/>
		
			<rect x="138.03" y="94.27" transform="matrix(-0.6612 -0.7502 0.7502 -0.6612 160.2404 262.1673)" style="fill:#EEC756;" width="2.58" height="1.27"/>
		
			<rect x="137.38" y="92.75" transform="matrix(0.7501 -0.6613 0.6613 0.7501 -27.2948 114.6116)" style="fill:#FED45C;" width="1.27" height="1.36"/>
		<path style="fill:#A3A2A2;" d="M124.75,108.24c0.01,0.14,0.07,0.27,0.16,0.4c0.18,0.25,0.18,0.63-0.04,0.77
			c-0.23,0.14-0.62-0.04-0.78-0.31c-0.21-0.36-1.06-0.59-1.2-1.13c-0.05-0.19-0.15-0.37-0.32-0.48c-0.78-0.48-0.55-1.34,0-1.07
			c0.14,0.07,0.29,0.08,0.41,0.02c0.2-0.09,0.54,0.02,0.79,0.6C123.99,107.54,124.72,107.46,124.75,108.24z"/>
	</g>
	<path style="fill:#BCBEC0;" d="M128.37,86.41c2.02,1.2,2.79,4.11,1.74,6.21c-0.89,1.79-2.23,2.39-3.37,3.98
		c-1.11,1.54-1.29,5.68-1.29,5.68s-1.89-3.97-1.19-6.26C125.69,91.35,130.48,90.85,128.37,86.41z"/>
	<path style="fill:#BCBEC0;" d="M121.33,97.47c-0.4,0.84-1.07,1.66-1.36,2.53c-0.68,2.04-0.09,3.73,1.41,5.24
		c-0.49-1.02-0.59-1.99-0.25-3.07c0.34-1.08,0.93-2.06,1.25-3.14c0.5-1.69,0.7-3.39-0.46-4.68
		C122.39,95.48,121.86,96.36,121.33,97.47z"/>
</g>
<path style="fill:#EE2E3B;" d="M132.84,78.49c-10.68,0-19.37,8.69-19.37,19.37c0,10.68,8.69,19.37,19.37,19.37
	c10.68,0,19.37-8.69,19.37-19.37C152.22,87.18,143.53,78.49,132.84,78.49z M132.84,80.94c9.33,0,16.92,7.59,16.92,16.92
	c0,3.78-1.25,7.27-3.35,10.09l-26.16-21.39C123.36,83.12,127.85,80.94,132.84,80.94z M132.84,114.78c-9.33,0-16.92-7.59-16.92-16.92
	c0-3.46,1.04-6.68,2.83-9.36l26.06,21.31C141.75,112.88,137.51,114.78,132.84,114.78z"/>
<path style="fill:#F2C4A5;" d="M281.95,351.5l0.43-0.95v-2.58c0-0.86,0.28-1.71,0.79-2.4l2.79-3.79l3.18-2.12l0.81,7.21l-0.53,4.02
	l-2.5,2.72L281.95,351.5z"/>
<g>
	<polygon style="fill:#686969;" points="288.3,335.3 301.12,350.33 305.94,350.33 305.94,335.3 	"/>
	<polygon style="fill:#59595B;" points="287.1,335.3 287.1,350.33 301.12,350.33 288.3,335.3 	"/>
</g>
<g>
	<g>
		<g>
			<path style="fill:#E6E7E8;" d="M304.04,346.29v0.02c-0.01,0.13-0.03,0.26-0.05,0.39c-0.09,0.6-0.3,1.15-0.6,1.65
				c-0.03,0.05-0.06,0.09-0.1,0.14c-0.3,0.39-0.78,0.63-1.3,0.67c-0.04,0-0.08,0.01-0.12,0.01c-0.53,0.01-0.98,0.01-1.36-0.01
				c-0.72-0.05-1.24-0.21-1.77-0.68c-0.11-0.1-0.22-0.2-0.32-0.3c-0.64-0.61-1.08-1.15-1.36-1.7c-0.05-0.1-0.09-0.19-0.14-0.29
				c-0.03-0.08-0.06-0.16-0.09-0.24c-0.02-0.08-0.05-0.16-0.07-0.24c-0.04-0.16-0.07-0.33-0.1-0.49c-0.01-0.09-0.02-0.17-0.03-0.25
				c-0.02-0.17-0.03-0.34-0.03-0.51c0-0.15,0-0.3,0-0.45c0-0.07,0-0.15,0-0.23c0-0.13,0.01-0.26,0.02-0.4
				c0.01-0.15,0.02-0.31,0.03-0.47c0.02-0.22,0.04-0.46,0.06-0.71c0.08-0.85-0.13-2.04,0.15-2.83c0.07-0.21,0.2-0.39,0.43-0.54
				c0.46-0.3,1.09-0.26,1.56,0.04c2.45,1.58,3.92,3.22,4.65,4.78c0.01,0.02,0.02,0.04,0.03,0.06
				C303.93,344.61,304.09,345.48,304.04,346.29z"/>
			<path style="fill:#939598;" d="M298.19,341.5c0.2,0.19,0.26,0.46,0.18,0.71c-0.09,0.32-0.06,0.66,0.04,1.01
				c0.14,0.51,0.37,0.98,0.31,1.52c-0.05,0.48-0.3,0.92-0.6,1.3c-0.01,0.02,0.01,0.04,0.03,0.03c0.54-0.35,0.85-0.85,0.94-1.48
				c0.08-0.61-0.32-1.31-0.32-1.93c0-0.18,0.25-0.24,0.35-0.09c0.4,0.59,0.7,1.23,0.74,1.95c0.04,0.71-0.1,1.49,0.27,2.14
				c0.48,0.85,1.79,1.07,1.77,2.21c0,0.02,0.03,0.02,0.03,0.01c0.12-0.77-0.47-1.18-0.96-1.71c-0.86-0.92-0.5-2-0.65-3.11
				c-0.04-0.26-0.11-0.51-0.2-0.75c0.78,0.18,0.94,1.26,1.37,1.81c0.4,0.51,0.88,0.66,1.51,0.77c0.03,0.01,0.04-0.03,0.01-0.04
				c-1.02-0.36-1.32-1.27-1.78-2.09c-0.21-0.38-0.53-0.71-0.94-0.83c-0.25-0.08-0.47-0.24-0.61-0.46c-0.28-0.43-0.43-0.58,0.18-0.57
				c0.31,0,0.62,0.03,0.93,0.05c0.52,0.04,1.06,0.13,1.41,0.54c0.03,0.04,0.09-0.01,0.07-0.05c-0.37-0.66-1.08-0.85-1.87-0.94
				c-0.11-0.01-0.21-0.02-0.32-0.02c-0.57-0.03-1.03-0.17-1.52-0.36c-0.08-0.08-0.16-0.16-0.24-0.23c-0.37-0.36-0.68-0.8-1.1-1.12
				c-0.05,0.16-0.09,0.35-0.11,0.54C297.34,340.71,297.82,341.15,298.19,341.5z"/>
		</g>
		<g>
			<path style="fill:#E6E7E8;" d="M294.33,348.05c-0.13,0.12-0.26,0.24-0.39,0.35c-0.43,0.37-1,0.74-1.91,0.74h-1.33
				c-0.56,0-1.11-0.26-1.41-0.71c-0.01-0.02-0.03-0.04-0.04-0.05c-0.03-0.05-0.06-0.11-0.09-0.16c0,0,0,0,0-0.01
				c-0.07-0.11-0.12-0.22-0.17-0.34c-0.1-0.22-0.19-0.46-0.25-0.69c-0.03-0.1-0.05-0.2-0.07-0.3c-0.02-0.11-0.04-0.21-0.06-0.32
				c-0.02-0.14-0.04-0.28-0.04-0.42c-0.01-0.24,0-0.48,0.02-0.72c0.01-0.16,0.04-0.33,0.07-0.49c0.01-0.08,0.03-0.16,0.06-0.25
				c0.03-0.11,0.06-0.21,0.1-0.32c0.01-0.05,0.03-0.11,0.06-0.17c0.03-0.08,0.06-0.16,0.09-0.23c0.04-0.09,0.08-0.18,0.13-0.28
				c0.96-2,2.78-3.61,4.64-4.81c0.47-0.31,1.11-0.37,1.59-0.06c0.23,0.15,0.36,0.33,0.43,0.54c0.27,0.8,0.07,1.99,0.15,2.83
				c0.02,0.25,0.04,0.48,0.06,0.71C296.12,344.97,296.08,346.45,294.33,348.05z"/>
			<path style="fill:#939598;" d="M294.42,341.5c-0.2,0.19-0.26,0.46-0.18,0.71c0.09,0.32,0.06,0.66-0.04,1.01
				c-0.14,0.51-0.37,0.98-0.31,1.52c0.05,0.48,0.3,0.92,0.6,1.3c0.01,0.02-0.01,0.04-0.03,0.03c-0.54-0.35-0.85-0.85-0.94-1.48
				c-0.08-0.61,0.32-1.31,0.32-1.93c0-0.18-0.25-0.24-0.35-0.09c-0.4,0.59-0.7,1.23-0.74,1.95c-0.04,0.71,0.1,1.49-0.27,2.14
				c-0.48,0.85-1.79,1.07-1.77,2.21c0,0.02-0.03,0.02-0.03,0.01c-0.12-0.77,0.47-1.18,0.96-1.71c0.86-0.92,0.5-2,0.65-3.11
				c0.04-0.26,0.11-0.51,0.2-0.75c-0.78,0.18-0.94,1.26-1.37,1.81c-0.4,0.51-0.88,0.66-1.51,0.77c-0.03,0.01-0.04-0.03-0.01-0.04
				c1.02-0.36,1.32-1.27,1.78-2.09c0.21-0.38,0.53-0.71,0.94-0.83c0.25-0.08,0.47-0.24,0.61-0.46c0.28-0.43,0.43-0.58-0.18-0.57
				c-0.31,0-0.62,0.03-0.93,0.05c-0.52,0.04-1.06,0.13-1.41,0.54c-0.03,0.04-0.09-0.01-0.07-0.05c0.37-0.66,1.08-0.85,1.87-0.94
				c0.11-0.01,0.21-0.02,0.32-0.02c0.57-0.03,1.03-0.17,1.52-0.36c0.08-0.08,0.16-0.16,0.24-0.23c0.37-0.36,0.68-0.8,1.1-1.12
				c0.05,0.16,0.09,0.35,0.11,0.54C295.27,340.71,294.79,341.15,294.42,341.5z"/>
		</g>
	</g>
	<g>
		<path style="fill:#C1C1C0;" d="M304.04,346.29v0.02c-0.01,0.13-0.03,0.26-0.05,0.39c-0.11,0.62-0.34,1.23-0.7,1.79
			c-0.3,0.39-0.78,0.63-1.3,0.67h-1.48c-0.72-0.05-1.24-0.21-1.77-0.68c-0.11-0.1-0.22-0.2-0.32-0.3c-0.05-0.04-0.09-0.08-0.14-0.13
			c-0.58-0.53-0.96-1.04-1.22-1.57c-0.05-0.1-0.09-0.19-0.14-0.29c-0.03-0.08-0.06-0.16-0.09-0.24c-0.02-0.08-0.05-0.16-0.07-0.24
			c-0.04-0.16-0.07-0.33-0.1-0.49c-0.01-0.09-0.02-0.17-0.03-0.25c-0.02-0.17-0.03-0.34-0.03-0.51c0-0.15,0-0.3,0-0.45
			c0-0.07,0-0.15,0-0.23c0-0.13,0.01-0.26,0.02-0.4c0.01-0.15,0.02-0.31,0.03-0.47h6.42c0.15,0.24,0.29,0.48,0.42,0.73
			c0.01,0.02,0.02,0.04,0.03,0.06c0.04,0.09,0.09,0.18,0.13,0.27C303.97,344.71,304.1,345.51,304.04,346.29z"/>
		<path style="fill:#C1C1C0;" d="M294.33,348.05c-0.13,0.12-0.26,0.24-0.39,0.35c-0.43,0.37-1,0.74-1.91,0.74h-1.33
			c-0.56,0-1.11-0.26-1.41-0.71c-0.05-0.07-0.09-0.14-0.13-0.21c0,0,0,0,0-0.01c-0.07-0.11-0.12-0.22-0.17-0.34
			c-0.1-0.22-0.19-0.46-0.25-0.69c-0.03-0.1-0.05-0.2-0.07-0.3c-0.02-0.11-0.04-0.21-0.06-0.32c-0.02-0.14-0.04-0.28-0.04-0.42
			c-0.01-0.24-0.01-0.48,0.02-0.72c0.01-0.16,0.04-0.33,0.07-0.49c0.01-0.08,0.03-0.16,0.06-0.25c0.03-0.11,0.06-0.21,0.1-0.32
			c0.01-0.05,0.03-0.11,0.06-0.17c0.03-0.08,0.06-0.16,0.09-0.23c0.04-0.09,0.08-0.18,0.13-0.28c0.14-0.27,0.29-0.53,0.45-0.79h6.42
			C296.12,344.97,296.08,346.45,294.33,348.05z"/>
	</g>
	<g>
		<path style="fill:#BABABA;" d="M297.13,337.92c-0.05-0.37-0.08-0.74-0.1-1.09c-0.23-0.06-0.48-0.09-0.75-0.09
			c-0.24,0.01-0.46,0.05-0.66,0.11c-0.02,0.35-0.05,0.72-0.11,1.09c0.23-0.08,0.49-0.13,0.77-0.14
			C296.6,337.8,296.88,337.85,297.13,337.92z"/>
		<path style="fill:#AEADAE;" d="M297.02,336.01h-1.39c0.01,0.26,0.01,0.54-0.01,0.84c0.2-0.06,0.42-0.1,0.66-0.11
			c0.27-0.01,0.52,0.03,0.75,0.09C297.02,336.54,297.02,336.27,297.02,336.01z"/>
		<path style="fill:#AEADAE;" d="M297.39,339.07c-0.12-0.37-0.2-0.76-0.26-1.15c-0.25-0.08-0.54-0.12-0.85-0.11
			c-0.28,0.01-0.54,0.06-0.77,0.14c-0.06,0.4-0.16,0.79-0.3,1.18c0.3-0.14,0.66-0.25,1.07-0.26
			C296.71,338.85,297.08,338.94,297.39,339.07z"/>
		<path style="fill:#BABABA;" d="M297.39,339.07c-0.31-0.13-0.68-0.22-1.1-0.2c-0.41,0.01-0.78,0.12-1.07,0.26
			c-0.19,0.53-0.47,1.03-0.86,1.43c0.23,0.2,0.47,0.39,0.7,0.59c0.16-0.48,0.26-1.02,1.25-1.09c0.76,0.05,1.05,0.47,1.25,1.09
			c0.23-0.2,0.47-0.39,0.7-0.59C297.85,340.18,297.58,339.65,297.39,339.07z"/>
	</g>
</g>
<path style="fill:#F2C5A6;" d="M290.76,346.03c0,0.01,0,0.02,0,0.03c0,0.02,0,0.03,0,0.05c-0.01,0.12-0.05,0.23-0.11,0.32
	c-0.23-0.02-0.47-0.05-0.58-0.08c-1.08-0.35-0.92-0.98-0.85-1.15l1.25,0.21C290.49,345.44,290.75,345.68,290.76,346.03z"/>
<g>
	<path style="fill:#F2C4A5;" d="M290.76,346.03c0,0.01,0,0.02,0,0.03c0,0.03,0,0.05,0,0.08c-0.02,0.12-0.06,0.23-0.13,0.34
		c-0.01,0.01-0.02,0.02-0.03,0.04c-0.15,0.19-0.38,0.33-0.65,0.35h-2.29l-0.86,3.52l0.25,1.34l0.84-0.17l-2.37,1.01l-1.73-2.07
		l1.06-5.7h1.96l2.17,0.36l0.25,0.04l1.25,0.21C290.49,345.44,290.75,345.68,290.76,346.03z"/>
	<polygon style="fill:#FFFFFF;" points="281.31,352.11 281.95,350.73 287.1,353.6 286.25,355.2 	"/>
	<g>
		<polygon style="fill:#14B0BF;" points="284.77,353.49 282.18,358.54 278.25,356.45 281.17,351.48 		"/>
		<polygon style="fill:#2EBFC8;" points="286.93,354.69 284.45,359.75 282.18,358.54 284.77,353.49 		"/>
	</g>
</g>
<g>
	<g>
		<path style="fill:#F2C4A5;" d="M311.02,350.71c-0.01,0.04-0.13,0.11-0.16,0.14l-0.31,0.27c-0.31,0.28-0.16,0.36-0.47,0.64
			c-0.64,0.58-1.37,1.05-2,1.64c-0.57,0.54-1.18,0.34-1.92,0.16c-1.2-0.29-2.7-0.26-3.72-1.02c-0.4-0.3-0.89-0.61-1.23-0.97
			c-0.29-0.31-0.5-0.65-0.83-0.92c-0.32-0.25-1.11-0.59-0.53-0.97c0.15-0.09,0.41-0.23,0.59-0.24c0.33-0.02,0.75,0.17,1.01,0.36
			c0.21,0.16,0.33,0.39,0.55,0.55c0.27,0.19,0.63,0.32,0.95,0.42c-0.49-0.7-0.96-1.23-1.55-1.85c-0.46-0.52-0.93-1.03-1.39-1.55
			c-0.66-0.73-1.32-1.47-1.98-2.2c0,0-0.01-0.01-0.01-0.01c-0.13-0.14-0.27-0.28-0.38-0.43c-0.04-0.06-0.06-0.13-0.06-0.2
			c0-0.02,0-0.04,0-0.06c0,0,0-0.01,0-0.01c0.01-0.04,0.01-0.09,0.02-0.13c0.08-0.38,0.39-0.66,0.78-0.71
			c0.04-0.01,0.08-0.01,0.13-0.01c0,0,0.01,0,0.01,0c0.05,0,0.1,0,0.15,0.02c0.06,0.02,0.11,0.04,0.15,0.09
			c0.07,0.08,0.14,0.16,0.21,0.24c0.45,0.5,0.9,1.01,1.35,1.51c0.31,0.34,0.6,0.71,0.93,1.04c0.29,0.29,0.75,0.77,0.97,0.81
			c-0.08-0.07-0.13-0.24-0.21-0.33c-0.09-0.1-0.18-0.2-0.27-0.3c-0.16-0.17-0.41-0.38-0.5-0.61c-0.15-0.4,0.29-0.9,0.67-0.95
			c0.41-0.06,0.74,0.32,1.01,0.56c0.08,0.07,0.43,0.29,0.38,0.12c-0.11-0.31-0.46-0.79-0.47-1.01c-0.02-0.41,0.35-0.73,0.74-0.77
			c0.56-0.06,1.02,0.6,1.35,0.97c0.02-0.12-0.22-0.39-0.21-0.53c0-0.2,0.14-0.42,0.29-0.54c0.64-0.5,1.17,0.32,1.59,0.7
			c0.76,0.69,1.44,1.46,2.04,2.3c0.29,0.4,0.6,0.82,0.82,1.26c0.19,0.39,0.17,0.86,0.4,1.23c0.19,0.31,0.51,0.58,0.75,0.85
			c0.13,0.14,0.23,0.26,0.27,0.31C310.97,350.63,311.03,350.66,311.02,350.71z"/>
		<path style="fill:#EAD4C1;" d="M299.05,344.88c-0.22,0.27-0.68,0.22-1.01-0.11l-0.28-0.28c-0.02-0.02-0.05-0.05-0.07-0.07
			c0.01-0.04,0.01-0.09,0.02-0.13c0.08-0.38,0.39-0.66,0.78-0.71c0.04-0.01,0.08-0.01,0.13-0.01c0,0,0.01,0,0.01,0l0.22,0.22
			C299.19,344.12,299.27,344.61,299.05,344.88z"/>
	</g>
	<g>
		<g>
			<polygon style="fill:#FFFFFF;" points="310.53,349.92 306.35,353.71 307.5,354.71 311.5,350.84 			"/>
		</g>
	</g>
	<g>
		<polygon style="fill:#2EBFC8;" points="315.59,353.52 312.24,357.13 308.34,353.58 311.66,350.28 		"/>
		<polygon style="fill:#14B0BF;" points="312.24,357.13 310.93,358.54 306.93,354.98 308.34,353.58 		"/>
	</g>
</g>
</svg>
